<?xml version="1.0" encoding="UTF-8" standalone="no"?>
<!DOCTYPE svg PUBLIC "-//W3C//DTD SVG 1.1//EN"
 "http://www.w3.org/Graphics/SVG/1.1/DTD/svg11.dtd">
<!-- Generated by graphviz version 16.1.0 (20260904.0139)
 -->
<!-- Title: vault Pages: 1 -->
<svg width="720pt" height="554pt"
 viewBox="0.00 0.00 720.00 554.00" xmlns="http://www.w3.org/2000/svg" xmlns:xlink="http://www.w3.org/1999/xlink">
<g id="graph0" class="graph" transform="scale(0.87411 0.87411) rotate(0) translate(28.8 604.8)">
<title>vault</title>
<polygon fill="#111111" stroke="none" points="-28.8,28.8 -28.8,-604.8 794.9,-604.8 794.9,28.8 -28.8,28.8"/>
<!-- HOME -->
<g id="node1" class="node">
<title>HOME</title>
<ellipse fill="#0ea5e9" stroke="#334155" stroke-width="2" cx="523" cy="-530" rx="30.38" ry="30.38"/>
<ellipse fill="none" stroke="#334155" stroke-width="2" cx="523" cy="-530" rx="34.38" ry="34.38"/>
<text xml:space="preserve" text-anchor="middle" x="523" y="-527.05" font-family="Segoe UI" font-size="11.00" fill="#0b1220">HOME</text>
</g>
<!-- 10&#45;Projects/Niyah.Engine -->
<g id="node2" class="node">
<title>10&#45;Projects/Niyah.Engine</title>
<polygon fill="#1d4ed8" stroke="#334155" stroke-width="2" points="228.5,-332 89.5,-332 89.5,-296 228.5,-296 228.5,-332"/>
<text xml:space="preserve" text-anchor="middle" x="159" y="-311.05" font-family="Segoe UI" font-size="11.00" fill="#0b1220">10&#45;Projects/Niyah.Engine</text>
</g>
<!-- HOME&#45;&gt;10&#45;Projects/Niyah.Engine -->
<g id="edge1" class="edge">
<title>HOME&#45;&gt;10&#45;Projects/Niyah.Engine</title>
<path fill="none" stroke="#64748b" d="M492.2,-514.21C453.82,-495.49 386.52,-461.74 331,-429 280.58,-399.27 224.46,-361.06 190.45,-337.3"/>
<polygon fill="#64748b" stroke="#64748b" points="191.92,-335.33 184.78,-333.32 189.11,-339.35 191.92,-335.33"/>
</g>
<!-- 30&#45;Experiments -->
<g id="node3" class="node">
<title>30&#45;Experiments</title>
<polygon fill="#7c3aed" stroke="#334155" stroke-width="2" points="463.42,-218 428.71,-236 359.29,-236 324.58,-218 359.29,-200 428.71,-200 463.42,-218"/>
<text xml:space="preserve" text-anchor="middle" x="394" y="-215.05" font-family="Segoe UI" font-size="11.00" fill="#0b1220">30&#45;Experiments</text>
</g>
<!-- HOME&#45;&gt;30&#45;Experiments -->
<g id="edge2" class="edge">
<title>HOME&#45;&gt;30&#45;Experiments</title>
<path fill="none" stroke="#64748b" d="M524.12,-495.41C524.25,-447.91 519.01,-359.8 483,-296 470.39,-273.66 448.74,-254.7 429.94,-241.19"/>
<polygon fill="#64748b" stroke="#64748b" points="431.56,-239.33 424.41,-237.33 428.75,-243.35 431.56,-239.33"/>
</g>
<!-- 40&#45;Evidence -->
<g id="node4" class="node">
<title>40&#45;Evidence</title>
<polygon fill="#b45309" stroke="#334155" stroke-width="2" points="305,-139 229,-139 229,-103 305,-103 305,-139"/>
<text xml:space="preserve" text-anchor="middle" x="267" y="-118.05" font-family="Segoe UI" font-size="11.00" fill="#0b1220">40&#45;Evidence</text>
</g>
<!-- HOME&#45;&gt;40&#45;Evidence -->
<g id="edge3" class="edge">
<title>HOME&#45;&gt;40&#45;Evidence</title>
<path fill="none" stroke="#64748b" d="M529.05,-495.66C538.95,-429.48 550.39,-280.98 472,-200 429.49,-156.08 359.7,-136.58 313.55,-128.13"/>
<polygon fill="#64748b" stroke="#64748b" points="314.02,-125.73 306.71,-126.94 313.18,-130.55 314.02,-125.73"/>
</g>
<!-- 60&#45;Decisions -->
<g id="node5" class="node">
<title>60&#45;Decisions</title>
<polygon fill="#15803d" stroke="#334155" stroke-width="2" points="213,-42 140.39,-24 213,-6 285.61,-24 213,-42"/>
<text xml:space="preserve" text-anchor="middle" x="213" y="-21.05" font-family="Segoe UI" font-size="11.00" fill="#0b1220">60&#45;Decisions</text>
</g>
<!-- HOME&#45;&gt;60&#45;Decisions -->
<g id="edge4" class="edge">
<title>HOME&#45;&gt;60&#45;Decisions</title>
<path fill="none" stroke="#64748b" d="M489.09,-522.8C373.19,-500.64 0,-421.08 0,-315 0,-315 0,-315 0,-217 0,-123.14 115.53,-63.39 176.42,-38.42"/>
<polygon fill="#64748b" stroke="#64748b" points="177.29,-40.71 182.87,-35.83 175.46,-36.16 177.29,-40.71"/>
</g>
<!-- 50&#45;Writing -->
<g id="node6" class="node">
<title>50&#45;Writing</title>
<polygon fill="#334155" stroke="#334155" stroke-width="2" points="403.62,-429 340.38,-429 340.38,-393 409.62,-393 409.62,-423 403.62,-429"/>
<polyline fill="none" stroke="#334155" stroke-width="2" points="403.62,-429 403.62,-423"/>
<polyline fill="none" stroke="#334155" stroke-width="2" points="409.62,-423 403.62,-423"/>
<text xml:space="preserve" text-anchor="middle" x="375" y="-408.05" font-family="Segoe UI" font-size="11.00" fill="#0b1220">50&#45;Writing</text>
</g>
<!-- HOME&#45;&gt;50&#45;Writing -->
<g id="edge5" class="edge">
<title>HOME&#45;&gt;50&#45;Writing</title>
<path fill="none" stroke="#64748b" d="M496.2,-507.81C469.94,-487.05 430.06,-455.53 403.3,-434.37"/>
<polygon fill="#64748b" stroke="#64748b" points="404.99,-432.58 397.98,-430.16 401.95,-436.43 404.99,-432.58"/>
</g>
<!-- 00&#45;Inbox -->
<g id="node7" class="node">
<title>00&#45;Inbox</title>
<polygon fill="#334155" stroke="#334155" stroke-width="2" points="741.12,-429 686.88,-429 686.88,-393 747.12,-393 747.12,-423 741.12,-429"/>
<polyline fill="none" stroke="#334155" stroke-width="2" points="741.12,-429 741.12,-423"/>
<polyline fill="none" stroke="#334155" stroke-width="2" points="747.12,-423 741.12,-423"/>
<text xml:space="preserve" text-anchor="middle" x="717" y="-408.05" font-family="Segoe UI" font-size="11.00" fill="#0b1220">00&#45;Inbox</text>
</g>
<!-- HOME&#45;&gt;00&#45;Inbox -->
<g id="edge6" class="edge">
<title>HOME&#45;&gt;00&#45;Inbox</title>
<path fill="none" stroke="#64748b" d="M552.04,-511.48C586.43,-490.75 643.71,-456.2 680.92,-433.76"/>
<polygon fill="#64748b" stroke="#64748b" points="682.05,-435.94 686.78,-430.23 679.52,-431.74 682.05,-435.94"/>
</g>
<!-- 10&#45;Projects/Niyah.Engine&#45;&gt;30&#45;Experiments -->
<g id="edge9" class="edge">
<title>10&#45;Projects/Niyah.Engine&#45;&gt;30&#45;Experiments</title>
<path fill="none" stroke="#64748b" d="M202.65,-295.54C243.93,-279.03 305.65,-254.34 347.75,-237.5"/>
<polygon fill="#64748b" stroke="#64748b" points="348.64,-239.78 354.23,-234.91 346.82,-235.23 348.64,-239.78"/>
</g>
<!-- 10&#45;Projects/Niyah.Engine&#45;&gt;40&#45;Evidence -->
<g id="edge7" class="edge">
<title>10&#45;Projects/Niyah.Engine&#45;&gt;40&#45;Evidence</title>
<path fill="none" stroke="#64748b" d="M168.77,-295.71C188,-261.71 230.8,-186.02 253.01,-146.73"/>
<polygon fill="#64748b" stroke="#64748b" points="255.11,-148 256.42,-140.7 250.85,-145.59 255.11,-148"/>
</g>
<!-- 10&#45;Projects/Niyah.Engine&#45;&gt;60&#45;Decisions -->
<g id="edge8" class="edge">
<title>10&#45;Projects/Niyah.Engine&#45;&gt;60&#45;Decisions</title>
<path fill="none" stroke="#64748b" d="M162.22,-295.85C171.37,-247.01 197.61,-107.06 208.34,-49.84"/>
<polygon fill="#64748b" stroke="#64748b" points="210.71,-50.52 209.59,-43.19 205.89,-49.62 210.71,-50.52"/>
</g>
<!-- 30&#45;Experiments&#45;&gt;40&#45;Evidence -->
<g id="edge11" class="edge">
<title>30&#45;Experiments&#45;&gt;40&#45;Evidence</title>
<path fill="none" stroke="#64748b" d="M370.71,-199.58C349.94,-184.04 319.43,-161.22 296.87,-144.34"/>
<polygon fill="#64748b" stroke="#64748b" points="298.43,-142.45 291.36,-140.22 295.5,-146.38 298.43,-142.45"/>
</g>
<!-- 40&#45;Evidence&#45;&gt;60&#45;Decisions -->
<g id="edge10" class="edge">
<title>40&#45;Evidence&#45;&gt;60&#45;Decisions</title>
<path fill="none" stroke="#64748b" d="M257.1,-102.58C248.28,-87.06 235.32,-64.27 225.74,-47.41"/>
<polygon fill="#64748b" stroke="#64748b" points="227.93,-46.31 222.34,-41.44 223.67,-48.73 227.93,-46.31"/>
</g>
<!-- 50&#45;Writing&#45;&gt;10&#45;Projects/Niyah.Engine -->
<g id="edge12" class="edge">
<title>50&#45;Writing&#45;&gt;10&#45;Projects/Niyah.Engine</title>
<path fill="none" stroke="#64748b" d="M340.3,-394.74C304,-378.77 246.78,-353.61 206.35,-335.83"/>
<polygon fill="#64748b" stroke="#64748b" points="207.53,-333.67 200.14,-333.09 205.56,-338.15 207.53,-333.67"/>
</g>
<!-- _Templates/Experiment -->
<g id="node8" class="node">
<title>_Templates/Experiment</title>
<polygon fill="#3f3f46" stroke="#334155" stroke-width="2" points="474,-332 471,-336 450,-336 447,-332 344,-332 344,-296 474,-296 474,-332"/>
<text xml:space="preserve" text-anchor="middle" x="409" y="-311.05" font-family="Segoe UI" font-size="11.00" fill="#0b1220">_Templates/Experiment</text>
</g>
<!-- _Templates/Experiment&#45;&gt;30&#45;Experiments -->
<g id="edge13" class="edge">
<title>_Templates/Experiment&#45;&gt;30&#45;Experiments</title>
<path fill="none" stroke="#64748b" d="M406.25,-295.76C403.96,-281.41 400.66,-260.76 398.07,-244.5"/>
<polygon fill="#64748b" stroke="#64748b" points="400.55,-244.47 397.02,-237.94 395.71,-245.24 400.55,-244.47"/>
</g>
<!-- _Templates/Decision -->
<g id="node9" class="node">
<title>_Templates/Decision</title>
<polygon fill="#3f3f46" stroke="#334155" stroke-width="2" points="511.25,-139 508.25,-143 487.25,-143 484.25,-139 394.75,-139 394.75,-103 511.25,-103 511.25,-139"/>
<text xml:space="preserve" text-anchor="middle" x="453" y="-118.05" font-family="Segoe UI" font-size="11.00" fill="#0b1220">_Templates/Decision</text>
</g>
<!-- _Templates/Decision&#45;&gt;60&#45;Decisions -->
<g id="edge14" class="edge">
<title>_Templates/Decision&#45;&gt;60&#45;Decisions</title>
<path fill="none" stroke="#64748b" d="M408.98,-102.58C362.58,-84.21 290.43,-55.65 247.83,-38.79"/>
<polygon fill="#64748b" stroke="#64748b" points="248.79,-36.53 241.38,-36.23 246.99,-41.09 248.79,-36.53"/>
</g>
</g>
</svg>
