<?xml version="1.0" encoding="UTF-8" standalone="no"?>
<!DOCTYPE svg PUBLIC "-//W3C//DTD SVG 1.1//EN"
 "http://www.w3.org/Graphics/SVG/1.1/DTD/svg11.dtd">
<!-- Generated by graphviz version 16.1.0 (20260904.0139)
 -->
<!-- Title: vault Pages: 1 -->
<svg width="711pt" height="576pt"
 viewBox="0.00 0.00 711.00 576.00" xmlns="http://www.w3.org/2000/svg" xmlns:xlink="http://www.w3.org/1999/xlink">
<g id="graph0" class="graph" transform="scale(0.609733 0.609733) rotate(0) translate(28.8 915.88)">
<title>vault</title>
<polygon fill="#111111" stroke="none" points="-28.8,28.8 -28.8,-915.88 1137.64,-915.88 1137.64,28.8 -28.8,28.8"/>
<!-- HOME -->
<g id="node1" class="node">
<title>HOME</title>
<ellipse fill="#0ea5e9" stroke="#334155" stroke-width="2" cx="518.89" cy="-281.1" rx="30.38" ry="30.38"/>
<ellipse fill="none" stroke="#334155" stroke-width="2" cx="518.89" cy="-281.1" rx="34.38" ry="34.38"/>
<text xml:space="preserve" text-anchor="middle" x="518.89" y="-278.15" font-family="Segoe UI" font-size="11.00" fill="#0b1220">HOME</text>
</g>
<!-- 10&#45;Projects/Niyah.Engine -->
<g id="node2" class="node">
<title>10&#45;Projects/Niyah.Engine</title>
<polygon fill="#1d4ed8" stroke="#334155" stroke-width="2" points="672.57,-561.93 533.57,-561.93 533.57,-525.93 672.57,-525.93 672.57,-561.93"/>
<text xml:space="preserve" text-anchor="middle" x="603.07" y="-540.98" font-family="Segoe UI" font-size="11.00" fill="#0b1220">10&#45;Projects/Niyah.Engine</text>
</g>
<!-- HOME&#45;&gt;10&#45;Projects/Niyah.Engine -->
<g id="edge1" class="edge">
<title>HOME&#45;&gt;10&#45;Projects/Niyah.Engine</title>
<path fill="none" stroke="#64748b" d="M529.47,-314.12C546.38,-366.93 579.18,-469.33 594.63,-517.58"/>
<polygon fill="#64748b" stroke="#64748b" points="592.29,-518.3 596.76,-524.22 596.96,-516.8 592.29,-518.3"/>
</g>
<!-- 30&#45;Experiments -->
<g id="node3" class="node">
<title>30&#45;Experiments</title>
<polygon fill="#7c3aed" stroke="#334155" stroke-width="2" points="892.88,-706.37 858.17,-724.37 788.75,-724.37 754.04,-706.37 788.75,-688.37 858.17,-688.37 892.88,-706.37"/>
<text xml:space="preserve" text-anchor="middle" x="823.46" y="-703.42" font-family="Segoe UI" font-size="11.00" fill="#0b1220">30&#45;Experiments</text>
</g>
<!-- HOME&#45;&gt;30&#45;Experiments -->
<g id="edge2" class="edge">
<title>HOME&#45;&gt;30&#45;Experiments</title>
<path fill="none" stroke="#64748b" d="M539.11,-309.33C595.23,-387.69 752.27,-606.97 805.53,-681.34"/>
<polygon fill="#64748b" stroke="#64748b" points="803.4,-682.58 809.47,-686.84 807.39,-679.72 803.4,-682.58"/>
</g>
<!-- 40&#45;Evidence -->
<g id="node4" class="node">
<title>40&#45;Evidence</title>
<polygon fill="#b45309" stroke="#334155" stroke-width="2" points="556.89,-824.77 480.89,-824.77 480.89,-788.77 556.89,-788.77 556.89,-824.77"/>
<text xml:space="preserve" text-anchor="middle" x="518.89" y="-803.82" font-family="Segoe UI" font-size="11.00" fill="#0b1220">40&#45;Evidence</text>
</g>
<!-- HOME&#45;&gt;40&#45;Evidence -->
<g id="edge3" class="edge">
<title>HOME&#45;&gt;40&#45;Evidence</title>
<path fill="none" stroke="#64748b" d="M518.89,-315.59C518.89,-413.64 518.89,-692.53 518.89,-780.11"/>
<polygon fill="#64748b" stroke="#64748b" points="516.44,-779.93 518.89,-786.93 521.34,-779.93 516.44,-779.93"/>
</g>
<!-- 60&#45;Decisions -->
<g id="node5" class="node">
<title>60&#45;Decisions</title>
<polygon fill="#15803d" stroke="#334155" stroke-width="2" points="330.66,-561.93 258.05,-543.93 330.66,-525.93 403.28,-543.93 330.66,-561.93"/>
<text xml:space="preserve" text-anchor="middle" x="330.66" y="-540.98" font-family="Segoe UI" font-size="11.00" fill="#0b1220">60&#45;Decisions</text>
</g>
<!-- HOME&#45;&gt;60&#45;Decisions -->
<g id="edge4" class="edge">
<title>HOME&#45;&gt;60&#45;Decisions</title>
<path fill="none" stroke="#64748b" d="M498.75,-309.22C461.13,-361.75 380.92,-473.75 346.69,-521.56"/>
<polygon fill="#64748b" stroke="#64748b" points="344.76,-520.05 342.67,-527.16 348.74,-522.9 344.76,-520.05"/>
</g>
<!-- 50&#45;Writing -->
<g id="node6" class="node">
<title>50&#45;Writing</title>
<polygon fill="#334155" stroke="#334155" stroke-width="2" points="852.08,-399.49 788.83,-399.49 788.83,-363.49 858.08,-363.49 858.08,-393.49 852.08,-399.49"/>
<polyline fill="none" stroke="#334155" stroke-width="2" points="852.08,-399.49 852.08,-393.49"/>
<polyline fill="none" stroke="#334155" stroke-width="2" points="858.08,-393.49 852.08,-393.49"/>
<text xml:space="preserve" text-anchor="middle" x="823.46" y="-378.54" font-family="Segoe UI" font-size="11.00" fill="#0b1220">50&#45;Writing</text>
</g>
<!-- HOME&#45;&gt;50&#45;Writing -->
<g id="edge5" class="edge">
<title>HOME&#45;&gt;50&#45;Writing</title>
<path fill="none" stroke="#64748b" d="M551.78,-291.94C607.13,-310.18 718.87,-347.02 780.4,-367.3"/>
<polygon fill="#64748b" stroke="#64748b" points="779.53,-369.59 786.94,-369.45 781.06,-364.93 779.53,-369.59"/>
</g>
<!-- 00&#45;Inbox -->
<g id="node7" class="node">
<title>00&#45;Inbox</title>
<polygon fill="#334155" stroke="#334155" stroke-width="2" points="458.84,-36.26 404.59,-36.26 404.59,-0.26 464.84,-0.26 464.84,-30.26 458.84,-36.26"/>
<polyline fill="none" stroke="#334155" stroke-width="2" points="458.84,-36.26 458.84,-30.26"/>
<polyline fill="none" stroke="#334155" stroke-width="2" points="464.84,-30.26 458.84,-30.26"/>
<text xml:space="preserve" text-anchor="middle" x="434.71" y="-15.31" font-family="Segoe UI" font-size="11.00" fill="#0b1220">00&#45;Inbox</text>
</g>
<!-- HOME&#45;&gt;00&#45;Inbox -->
<g id="edge6" class="edge">
<title>HOME&#45;&gt;00&#45;Inbox</title>
<path fill="none" stroke="#64748b" d="M508.32,-248.07C491.4,-195.27 458.61,-92.87 443.16,-44.62"/>
<polygon fill="#64748b" stroke="#64748b" points="445.5,-43.9 441.03,-37.98 440.83,-45.39 445.5,-43.9"/>
</g>
<!-- 10&#45;Projects/Niyah.Engine&#45;&gt;30&#45;Experiments -->
<g id="edge9" class="edge">
<title>10&#45;Projects/Niyah.Engine&#45;&gt;30&#45;Experiments</title>
<path fill="none" stroke="#64748b" d="M627.93,-562.25C668.21,-591.94 747.7,-650.54 791.92,-683.12"/>
<polygon fill="#64748b" stroke="#64748b" points="790.39,-685.04 797.48,-687.22 793.3,-681.1 790.39,-685.04"/>
</g>
<!-- 10&#45;Projects/Niyah.Engine&#45;&gt;40&#45;Evidence -->
<g id="edge7" class="edge">
<title>10&#45;Projects/Niyah.Engine&#45;&gt;40&#45;Evidence</title>
<path fill="none" stroke="#64748b" d="M597.15,-562.41C582.48,-608.22 544.4,-727.14 527.35,-780.35"/>
<polygon fill="#64748b" stroke="#64748b" points="525.07,-779.45 525.27,-786.86 529.74,-780.95 525.07,-779.45"/>
</g>
<!-- 10&#45;Projects/Niyah.Engine&#45;&gt;60&#45;Decisions -->
<g id="edge8" class="edge">
<title>10&#45;Projects/Niyah.Engine&#45;&gt;60&#45;Decisions</title>
<path fill="none" stroke="#64748b" d="M533.27,-543.93C496.63,-543.93 451.49,-543.93 413.13,-543.93"/>
<polygon fill="#64748b" stroke="#64748b" points="413.56,-541.48 406.56,-543.93 413.56,-546.38 413.56,-541.48"/>
</g>
<!-- 30&#45;Experiments&#45;&gt;40&#45;Evidence -->
<g id="edge11" class="edge">
<title>30&#45;Experiments&#45;&gt;40&#45;Evidence</title>
<path fill="none" stroke="#64748b" d="M780.47,-720.54C723.62,-739.28 623.82,-772.18 565.31,-791.47"/>
<polygon fill="#64748b" stroke="#64748b" points="564.65,-789.1 558.77,-793.62 566.19,-793.76 564.65,-789.1"/>
</g>
<!-- 40&#45;Evidence&#45;&gt;60&#45;Decisions -->
<g id="edge10" class="edge">
<title>40&#45;Evidence&#45;&gt;60&#45;Decisions</title>
<path fill="none" stroke="#64748b" d="M505.66,-788.29C471.93,-741.19 382.86,-616.82 346.48,-566.02"/>
<polygon fill="#64748b" stroke="#64748b" points="348.66,-564.85 342.59,-560.59 344.67,-567.71 348.66,-564.85"/>
</g>
<!-- 50&#45;Writing&#45;&gt;10&#45;Projects/Niyah.Engine -->
<g id="edge12" class="edge">
<title>50&#45;Writing&#45;&gt;10&#45;Projects/Niyah.Engine</title>
<path fill="none" stroke="#64748b" d="M798.61,-399.81C758.32,-429.5 678.83,-488.09 634.62,-520.68"/>
<polygon fill="#64748b" stroke="#64748b" points="633.23,-518.66 629.05,-524.78 636.14,-522.6 633.23,-518.66"/>
</g>
<!-- _Templates/Experiment -->
<g id="node8" class="node">
<title>_Templates/Experiment</title>
<polygon fill="#3f3f46" stroke="#334155" stroke-width="2" points="1108.84,-886.81 1105.84,-890.81 1084.84,-890.81 1081.84,-886.81 978.84,-886.81 978.84,-850.81 1108.84,-850.81 1108.84,-886.81"/>
<text xml:space="preserve" text-anchor="middle" x="1043.84" y="-865.86" font-family="Segoe UI" font-size="11.00" fill="#0b1220">_Templates/Experiment</text>
</g>
<!-- _Templates/Experiment&#45;&gt;30&#45;Experiments -->
<g id="edge13" class="edge">
<title>_Templates/Experiment&#45;&gt;30&#45;Experiments</title>
<path fill="none" stroke="#64748b" d="M1018.99,-850.5C978.71,-820.8 899.22,-762.21 855,-729.62"/>
<polygon fill="#64748b" stroke="#64748b" points="856.53,-727.7 849.44,-725.52 853.62,-731.65 856.53,-727.7"/>
</g>
<!-- _Templates/Decision -->
<g id="node9" class="node">
<title>_Templates/Decision</title>
<polygon fill="#3f3f46" stroke="#334155" stroke-width="2" points="116.5,-561.93 113.5,-565.93 92.5,-565.93 89.5,-561.93 0,-561.93 0,-525.93 116.5,-525.93 116.5,-561.93"/>
<text xml:space="preserve" text-anchor="middle" x="58.25" y="-540.98" font-family="Segoe UI" font-size="11.00" fill="#0b1220">_Templates/Decision</text>
</g>
<!-- _Templates/Decision&#45;&gt;60&#45;Decisions -->
<g id="edge14" class="edge">
<title>_Templates/Decision&#45;&gt;60&#45;Decisions</title>
<path fill="none" stroke="#64748b" d="M116.69,-543.93C154.87,-543.93 205.31,-543.93 247.63,-543.93"/>
<polygon fill="#64748b" stroke="#64748b" points="247.46,-546.38 254.46,-543.93 247.46,-541.48 247.46,-546.38"/>
</g>
</g>
</svg>
